# xmcd
#
# Track frame offsets: 
#        150
#        29608
#        50493
#        73160
#        95213
#        120204
#        149033
#        167177
#        190181
#        208488
#
# Disc length: 3166 seconds
#
# Revision: 0
# Processed by: cddbd v1.5.2PL0 Copyright (c) Steve Scherf et al.
# Submitted via: ExactAudioCopy v1.0b3
#
DISCID=a20c5c0a
DTITLE=Tuan Vu, Lyn - Tuoi Hoc Tro
DYEAR=1992
DGENRE=
TTITLE0=Tuan Vu - Tam diep khuc
TTITLE1=Lyn - Ai kho vi ai
TTITLE2=Tuan Vu - Duong xua loi cu
TTITLE3=Lyn - Go cua
TTITLE4=Tuan Vu - Lanh lung
TTITLE5=Tuan Vu - Tinh dau tinh cuoi
TTITLE6=Lyn - Tuoi hoc tro
TTITLE7=Tuan Vu - Bong chieu ta
TTITLE8=Lyn - Mot thuo yeu anh
TTITLE9=Tuan Vu - Ban tinh cuoi
EXTD=
EXTT0=
EXTT1=
EXTT2=
EXTT3=
EXTT4=
EXTT5=
EXTT6=
EXTT7=
EXTT8=
EXTT9=
PLAYORDER=
